<mxfile host="65bd71144e" scale="2" border="0">
    <diagram id="re4nRq3ztlOj4PsxZ_Kz" name="Module">
        <mxGraphModel dx="876" dy="939" grid="1" gridSize="10" guides="1" tooltips="1" connect="1" arrows="1" fold="1" page="1" pageScale="1" pageWidth="827" pageHeight="1169" background="#ffffff" math="0" shadow="0">
            <root>
                <mxCell id="mD4qsfjiBxj0C8qhvROk-0"/>
                <mxCell id="mD4qsfjiBxj0C8qhvROk-1" parent="mD4qsfjiBxj0C8qhvROk-0"/>
                <mxCell id="TDkGh3aXFkbHkJUPuLyF-34" value="Common" style="swimlane;rounded=0;shadow=0;glass=0;labelBackgroundColor=none;sketch=0;fontSize=15;fontColor=#ffffff;swimlaneFillColor=#FAFAFA;fillColor=#0050ef;strokeColor=#CCCCCC;" parent="mD4qsfjiBxj0C8qhvROk-1" vertex="1">
                    <mxGeometry x="1000" y="320" width="520" height="540" as="geometry">
                        <mxRectangle x="1000" y="320" width="100" height="23" as="alternateBounds"/>
                    </mxGeometry>
                </mxCell>
                <mxCell id="TDkGh3aXFkbHkJUPuLyF-27" value="Application" style="swimlane;horizontal=0;fontSize=15;fontColor=#ffffff;fillColor=#e51400;labelBackgroundColor=none;rounded=0;shadow=0;sketch=0;glass=0;swimlaneLine=1;swimlaneFillColor=#FAFAFA;strokeColor=#CCCCCC;" parent="mD4qsfjiBxj0C8qhvROk-1" vertex="1">
                    <mxGeometry x="110" y="120" width="770" height="200" as="geometry"/>
                </mxCell>
                <mxCell id="TDkGh3aXFkbHkJUPuLyF-33" value="Data" style="swimlane;horizontal=0;rounded=0;shadow=0;glass=0;labelBackgroundColor=none;sketch=0;fontSize=15;fontColor=#ffffff;fillColor=#e51400;swimlaneFillColor=#FAFAFA;strokeColor=#CCCCCC;" parent="mD4qsfjiBxj0C8qhvROk-1" vertex="1">
                    <mxGeometry x="110" y="700" width="770" height="160" as="geometry"/>
                </mxCell>
                <mxCell id="TDkGh3aXFkbHkJUPuLyF-32" value="Domain" style="swimlane;horizontal=0;rounded=0;shadow=0;glass=0;labelBackgroundColor=none;sketch=0;fontSize=15;fontColor=#ffffff;fillColor=#e51400;swimlaneFillColor=#FAFAFA;strokeColor=#CCCCCC;" parent="mD4qsfjiBxj0C8qhvROk-1" vertex="1">
                    <mxGeometry x="110" y="540" width="770" height="160" as="geometry"/>
                </mxCell>
                <mxCell id="TDkGh3aXFkbHkJUPuLyF-30" value="Feature" style="swimlane;horizontal=0;rounded=0;shadow=0;glass=0;labelBackgroundColor=none;sketch=0;fontSize=15;fontColor=#ffffff;fillColor=#e51400;swimlaneFillColor=#FAFAFA;strokeColor=#CCCCCC;" parent="mD4qsfjiBxj0C8qhvROk-1" vertex="1">
                    <mxGeometry x="110" y="320" width="770" height="220" as="geometry"/>
                </mxCell>
                <mxCell id="TDkGh3aXFkbHkJUPuLyF-0" value="data" style="rounded=0;whiteSpace=wrap;html=1;fontSize=20;" parent="TDkGh3aXFkbHkJUPuLyF-30" vertex="1">
                    <mxGeometry x="100" y="430" width="120" height="60" as="geometry"/>
                </mxCell>
                <mxCell id="TDkGh3aXFkbHkJUPuLyF-1" value="domain" style="rounded=0;whiteSpace=wrap;html=1;fontSize=20;" parent="TDkGh3aXFkbHkJUPuLyF-30" vertex="1">
                    <mxGeometry x="100" y="270" width="120" height="60" as="geometry"/>
                </mxCell>
                <mxCell id="mD4qsfjiBxj0C8qhvROk-2" value="app" style="rounded=0;whiteSpace=wrap;html=1;fontSize=20;" parent="TDkGh3aXFkbHkJUPuLyF-30" vertex="1">
                    <mxGeometry x="340" y="-165" width="120" height="60" as="geometry"/>
                </mxCell>
                <mxCell id="TDkGh3aXFkbHkJUPuLyF-12" style="edgeStyle=orthogonalEdgeStyle;rounded=0;orthogonalLoop=1;jettySize=auto;html=1;entryX=0.5;entryY=0;entryDx=0;entryDy=0;fontSize=20;fontColor=#FFFFFF;endArrow=block;endFill=1;" parent="TDkGh3aXFkbHkJUPuLyF-30" source="mD4qsfjiBxj0C8qhvROk-2" target="TDkGh3aXFkbHkJUPuLyF-5" edge="1">
                    <mxGeometry relative="1" as="geometry">
                        <Array as="points">
                            <mxPoint x="400" y="-50"/>
                            <mxPoint x="160" y="-50"/>
                        </Array>
                    </mxGeometry>
                </mxCell>
                <mxCell id="TDkGh3aXFkbHkJUPuLyF-13" style="edgeStyle=orthogonalEdgeStyle;rounded=0;orthogonalLoop=1;jettySize=auto;html=1;entryX=0.5;entryY=0;entryDx=0;entryDy=0;fontSize=20;fontColor=#FFFFFF;endArrow=block;endFill=1;" parent="TDkGh3aXFkbHkJUPuLyF-30" source="mD4qsfjiBxj0C8qhvROk-2" target="TDkGh3aXFkbHkJUPuLyF-6" edge="1">
                    <mxGeometry relative="1" as="geometry">
                        <Array as="points">
                            <mxPoint x="400" y="-50"/>
                            <mxPoint x="320" y="-50"/>
                        </Array>
                    </mxGeometry>
                </mxCell>
                <mxCell id="TDkGh3aXFkbHkJUPuLyF-14" style="edgeStyle=orthogonalEdgeStyle;rounded=0;orthogonalLoop=1;jettySize=auto;html=1;entryX=0.5;entryY=0;entryDx=0;entryDy=0;fontSize=20;fontColor=#FFFFFF;endArrow=block;endFill=1;" parent="TDkGh3aXFkbHkJUPuLyF-30" source="mD4qsfjiBxj0C8qhvROk-2" target="TDkGh3aXFkbHkJUPuLyF-8" edge="1">
                    <mxGeometry relative="1" as="geometry">
                        <Array as="points">
                            <mxPoint x="400" y="-50"/>
                            <mxPoint x="480" y="-50"/>
                        </Array>
                    </mxGeometry>
                </mxCell>
                <mxCell id="TDkGh3aXFkbHkJUPuLyF-15" style="edgeStyle=orthogonalEdgeStyle;rounded=0;orthogonalLoop=1;jettySize=auto;html=1;entryX=0.5;entryY=0;entryDx=0;entryDy=0;fontSize=20;fontColor=#FFFFFF;endArrow=block;endFill=1;" parent="TDkGh3aXFkbHkJUPuLyF-30" source="mD4qsfjiBxj0C8qhvROk-2" target="TDkGh3aXFkbHkJUPuLyF-4" edge="1">
                    <mxGeometry relative="1" as="geometry">
                        <Array as="points">
                            <mxPoint x="400" y="-50"/>
                            <mxPoint x="640" y="-50"/>
                        </Array>
                    </mxGeometry>
                </mxCell>
                <mxCell id="TDkGh3aXFkbHkJUPuLyF-11" style="edgeStyle=orthogonalEdgeStyle;rounded=0;orthogonalLoop=1;jettySize=auto;html=1;entryX=0.5;entryY=0;entryDx=0;entryDy=0;fontSize=20;fontColor=#FFFFFF;endArrow=block;endFill=1;" parent="TDkGh3aXFkbHkJUPuLyF-30" source="TDkGh3aXFkbHkJUPuLyF-1" target="TDkGh3aXFkbHkJUPuLyF-0" edge="1">
                    <mxGeometry relative="1" as="geometry"/>
                </mxCell>
                <mxCell id="TDkGh3aXFkbHkJUPuLyF-19" style="edgeStyle=orthogonalEdgeStyle;rounded=0;orthogonalLoop=1;jettySize=auto;html=1;entryX=0.5;entryY=0;entryDx=0;entryDy=0;fontSize=20;fontColor=#FFFFFF;endArrow=block;endFill=1;" parent="TDkGh3aXFkbHkJUPuLyF-30" source="TDkGh3aXFkbHkJUPuLyF-4" target="TDkGh3aXFkbHkJUPuLyF-1" edge="1">
                    <mxGeometry relative="1" as="geometry">
                        <Array as="points">
                            <mxPoint x="640" y="150"/>
                            <mxPoint x="160" y="150"/>
                        </Array>
                    </mxGeometry>
                </mxCell>
                <mxCell id="TDkGh3aXFkbHkJUPuLyF-4" value="detail" style="rounded=0;whiteSpace=wrap;html=1;fontSize=20;" parent="TDkGh3aXFkbHkJUPuLyF-30" vertex="1">
                    <mxGeometry x="580" y="40" width="120" height="60" as="geometry"/>
                </mxCell>
                <mxCell id="TDkGh3aXFkbHkJUPuLyF-24" style="edgeStyle=orthogonalEdgeStyle;rounded=0;orthogonalLoop=1;jettySize=auto;html=1;entryX=0.5;entryY=0;entryDx=0;entryDy=0;fontSize=20;fontColor=#FFFFFF;endArrow=block;endFill=1;" parent="TDkGh3aXFkbHkJUPuLyF-30" source="TDkGh3aXFkbHkJUPuLyF-5" target="TDkGh3aXFkbHkJUPuLyF-1" edge="1">
                    <mxGeometry relative="1" as="geometry"/>
                </mxCell>
                <mxCell id="TDkGh3aXFkbHkJUPuLyF-5" value="home" style="rounded=0;whiteSpace=wrap;html=1;fontSize=20;" parent="TDkGh3aXFkbHkJUPuLyF-30" vertex="1">
                    <mxGeometry x="100" y="40" width="120" height="60" as="geometry"/>
                </mxCell>
                <mxCell id="TDkGh3aXFkbHkJUPuLyF-6" value="schedule" style="rounded=0;whiteSpace=wrap;html=1;fontSize=20;" parent="TDkGh3aXFkbHkJUPuLyF-30" vertex="1">
                    <mxGeometry x="260" y="40" width="120" height="60" as="geometry"/>
                </mxCell>
                <mxCell id="TDkGh3aXFkbHkJUPuLyF-8" value="setting" style="rounded=0;whiteSpace=wrap;html=1;fontSize=20;" parent="TDkGh3aXFkbHkJUPuLyF-30" vertex="1">
                    <mxGeometry x="420" y="40" width="120" height="60" as="geometry"/>
                </mxCell>
                <mxCell id="TDkGh3aXFkbHkJUPuLyF-16" style="edgeStyle=orthogonalEdgeStyle;rounded=0;orthogonalLoop=1;jettySize=auto;html=1;entryX=0;entryY=0.5;entryDx=0;entryDy=0;fontSize=20;fontColor=#FFFFFF;endArrow=block;endFill=1;exitX=1;exitY=0.5;exitDx=0;exitDy=0;" parent="mD4qsfjiBxj0C8qhvROk-1" source="TDkGh3aXFkbHkJUPuLyF-0" target="TDkGh3aXFkbHkJUPuLyF-10" edge="1">
                    <mxGeometry relative="1" as="geometry">
                        <Array as="points"/>
                    </mxGeometry>
                </mxCell>
                <mxCell id="TDkGh3aXFkbHkJUPuLyF-17" style="edgeStyle=orthogonalEdgeStyle;rounded=0;orthogonalLoop=1;jettySize=auto;html=1;entryX=0;entryY=0.5;entryDx=0;entryDy=0;fontSize=20;fontColor=#FFFFFF;endArrow=block;endFill=1;exitX=1;exitY=0.5;exitDx=0;exitDy=0;" parent="mD4qsfjiBxj0C8qhvROk-1" source="TDkGh3aXFkbHkJUPuLyF-1" target="TDkGh3aXFkbHkJUPuLyF-10" edge="1">
                    <mxGeometry relative="1" as="geometry">
                        <Array as="points">
                            <mxPoint x="960" y="620"/>
                            <mxPoint x="960" y="780"/>
                        </Array>
                    </mxGeometry>
                </mxCell>
                <mxCell id="TDkGh3aXFkbHkJUPuLyF-2" value="core-ui" style="rounded=0;whiteSpace=wrap;html=1;fontSize=20;" parent="mD4qsfjiBxj0C8qhvROk-1" vertex="1">
                    <mxGeometry x="1040" y="540" width="120" height="60" as="geometry"/>
                </mxCell>
                <mxCell id="TDkGh3aXFkbHkJUPuLyF-18" style="edgeStyle=orthogonalEdgeStyle;rounded=0;orthogonalLoop=1;jettySize=auto;html=1;entryX=1;entryY=0.5;entryDx=0;entryDy=0;fontSize=20;fontColor=#FFFFFF;endArrow=block;endFill=1;exitX=0.5;exitY=1;exitDx=0;exitDy=0;" parent="mD4qsfjiBxj0C8qhvROk-1" source="TDkGh3aXFkbHkJUPuLyF-3" target="TDkGh3aXFkbHkJUPuLyF-10" edge="1">
                    <mxGeometry relative="1" as="geometry">
                        <Array as="points">
                            <mxPoint x="1260" y="780"/>
                        </Array>
                    </mxGeometry>
                </mxCell>
                <mxCell id="TDkGh3aXFkbHkJUPuLyF-3" value="core-ui-compose" style="rounded=0;whiteSpace=wrap;html=1;fontSize=20;" parent="mD4qsfjiBxj0C8qhvROk-1" vertex="1">
                    <mxGeometry x="1200" y="540" width="120" height="60" as="geometry"/>
                </mxCell>
                <mxCell id="TDkGh3aXFkbHkJUPuLyF-20" style="edgeStyle=orthogonalEdgeStyle;rounded=0;orthogonalLoop=1;jettySize=auto;html=1;fontSize=20;fontColor=#FFFFFF;endArrow=block;endFill=1;" parent="mD4qsfjiBxj0C8qhvROk-1" source="TDkGh3aXFkbHkJUPuLyF-4" target="TDkGh3aXFkbHkJUPuLyF-2" edge="1">
                    <mxGeometry relative="1" as="geometry">
                        <Array as="points">
                            <mxPoint x="860" y="470"/>
                            <mxPoint x="540" y="470"/>
                        </Array>
                    </mxGeometry>
                </mxCell>
                <mxCell id="TDkGh3aXFkbHkJUPuLyF-21" style="edgeStyle=orthogonalEdgeStyle;rounded=0;orthogonalLoop=1;jettySize=auto;html=1;entryX=0.5;entryY=0;entryDx=0;entryDy=0;fontSize=20;fontColor=#FFFFFF;endArrow=block;endFill=1;" parent="mD4qsfjiBxj0C8qhvROk-1" source="TDkGh3aXFkbHkJUPuLyF-4" target="TDkGh3aXFkbHkJUPuLyF-3" edge="1">
                    <mxGeometry relative="1" as="geometry">
                        <Array as="points">
                            <mxPoint x="860" y="470"/>
                            <mxPoint x="700" y="470"/>
                        </Array>
                    </mxGeometry>
                </mxCell>
                <mxCell id="TDkGh3aXFkbHkJUPuLyF-22" style="edgeStyle=orthogonalEdgeStyle;rounded=0;orthogonalLoop=1;jettySize=auto;html=1;entryX=0.5;entryY=0;entryDx=0;entryDy=0;fontSize=20;fontColor=#FFFFFF;endArrow=block;endFill=1;" parent="mD4qsfjiBxj0C8qhvROk-1" source="TDkGh3aXFkbHkJUPuLyF-4" target="TDkGh3aXFkbHkJUPuLyF-9" edge="1">
                    <mxGeometry relative="1" as="geometry">
                        <Array as="points">
                            <mxPoint x="750" y="470"/>
                            <mxPoint x="1420" y="470"/>
                        </Array>
                    </mxGeometry>
                </mxCell>
                <mxCell id="TDkGh3aXFkbHkJUPuLyF-23" style="edgeStyle=orthogonalEdgeStyle;rounded=0;orthogonalLoop=1;jettySize=auto;html=1;entryX=0;entryY=0.5;entryDx=0;entryDy=0;fontSize=20;fontColor=#FFFFFF;endArrow=block;endFill=1;" parent="mD4qsfjiBxj0C8qhvROk-1" source="TDkGh3aXFkbHkJUPuLyF-4" target="TDkGh3aXFkbHkJUPuLyF-10" edge="1">
                    <mxGeometry relative="1" as="geometry">
                        <Array as="points">
                            <mxPoint x="750" y="470"/>
                            <mxPoint x="960" y="470"/>
                            <mxPoint x="960" y="780"/>
                        </Array>
                    </mxGeometry>
                </mxCell>
                <mxCell id="TDkGh3aXFkbHkJUPuLyF-26" style="edgeStyle=orthogonalEdgeStyle;rounded=0;orthogonalLoop=1;jettySize=auto;html=1;entryX=0.5;entryY=0;entryDx=0;entryDy=0;fontSize=20;fontColor=#FFFFFF;endArrow=block;endFill=1;" parent="mD4qsfjiBxj0C8qhvROk-1" source="TDkGh3aXFkbHkJUPuLyF-8" target="TDkGh3aXFkbHkJUPuLyF-3" edge="1">
                    <mxGeometry relative="1" as="geometry">
                        <Array as="points">
                            <mxPoint x="590" y="470"/>
                            <mxPoint x="1260" y="470"/>
                        </Array>
                    </mxGeometry>
                </mxCell>
                <mxCell id="TDkGh3aXFkbHkJUPuLyF-9" value="navigator" style="rounded=0;whiteSpace=wrap;html=1;fontSize=20;" parent="mD4qsfjiBxj0C8qhvROk-1" vertex="1">
                    <mxGeometry x="1360" y="540" width="120" height="60" as="geometry"/>
                </mxCell>
                <mxCell id="TDkGh3aXFkbHkJUPuLyF-10" value="shared" style="rounded=0;whiteSpace=wrap;html=1;fontSize=20;" parent="mD4qsfjiBxj0C8qhvROk-1" vertex="1">
                    <mxGeometry x="1040" y="750" width="120" height="60" as="geometry"/>
                </mxCell>
                <mxCell id="TDkGh3aXFkbHkJUPuLyF-25" style="edgeStyle=orthogonalEdgeStyle;rounded=0;orthogonalLoop=1;jettySize=auto;html=1;fontSize=20;fontColor=#FFFFFF;endArrow=block;endFill=1;entryX=0.5;entryY=0;entryDx=0;entryDy=0;" parent="mD4qsfjiBxj0C8qhvROk-1" source="TDkGh3aXFkbHkJUPuLyF-6" target="TDkGh3aXFkbHkJUPuLyF-2" edge="1">
                    <mxGeometry relative="1" as="geometry">
                        <mxPoint x="430" y="540" as="targetPoint"/>
                        <Array as="points">
                            <mxPoint x="430" y="470"/>
                            <mxPoint x="1100" y="470"/>
                        </Array>
                    </mxGeometry>
                </mxCell>
            </root>
        </mxGraphModel>
    </diagram>
    <diagram id="IttgmGJJRV60SgGr8fVj" name="Layer">
        <mxGraphModel dx="876" dy="939" grid="1" gridSize="10" guides="1" tooltips="1" connect="1" arrows="1" fold="1" page="1" pageScale="1" pageWidth="827" pageHeight="1169" background="#ffffff" math="0" shadow="0">
            <root>
                <mxCell id="0"/>
                <mxCell id="1" parent="0"/>
                <mxCell id="4" style="edgeStyle=orthogonalEdgeStyle;rounded=0;orthogonalLoop=1;jettySize=auto;html=1;entryX=0.5;entryY=0;entryDx=0;entryDy=0;fontSize=15;endArrow=block;endFill=1;" parent="1" source="2" target="3" edge="1">
                    <mxGeometry relative="1" as="geometry"/>
                </mxCell>
                <mxCell id="2" value="Activity/Fragment" style="rounded=0;whiteSpace=wrap;html=1;fontSize=20;fillColor=#60a917;strokeColor=#2D7600;fontColor=#ffffff;" parent="1" vertex="1">
                    <mxGeometry x="314" y="110" width="200" height="80" as="geometry"/>
                </mxCell>
                <mxCell id="7" style="edgeStyle=orthogonalEdgeStyle;rounded=0;orthogonalLoop=1;jettySize=auto;html=1;entryX=0.5;entryY=0;entryDx=0;entryDy=0;fontSize=20;endArrow=block;endFill=1;" parent="1" source="3" target="5" edge="1">
                    <mxGeometry relative="1" as="geometry"/>
                </mxCell>
                <mxCell id="3" value="ViewModel" style="rounded=0;whiteSpace=wrap;html=1;fontSize=20;fillColor=#1ba1e2;strokeColor=#006EAF;fontColor=#ffffff;" parent="1" vertex="1">
                    <mxGeometry x="314" y="270" width="200" height="80" as="geometry"/>
                </mxCell>
                <mxCell id="8" style="edgeStyle=orthogonalEdgeStyle;rounded=0;orthogonalLoop=1;jettySize=auto;html=1;entryX=0.5;entryY=0;entryDx=0;entryDy=0;fontSize=20;endArrow=block;endFill=1;" parent="1" source="5" target="6" edge="1">
                    <mxGeometry relative="1" as="geometry"/>
                </mxCell>
                <mxCell id="5" value="Domain&lt;br&gt;&lt;font style=&quot;font-size: 15px&quot;&gt;(UseCase Pattern)&lt;/font&gt;" style="rounded=0;whiteSpace=wrap;html=1;fontSize=20;fillColor=#d80073;strokeColor=#A50040;fontColor=#ffffff;" parent="1" vertex="1">
                    <mxGeometry x="314" y="430" width="200" height="80" as="geometry"/>
                </mxCell>
                <mxCell id="12" style="edgeStyle=orthogonalEdgeStyle;rounded=0;orthogonalLoop=1;jettySize=auto;html=1;entryX=0.5;entryY=0;entryDx=0;entryDy=0;fontSize=20;endArrow=block;endFill=1;" parent="1" source="6" target="10" edge="1">
                    <mxGeometry relative="1" as="geometry">
                        <Array as="points">
                            <mxPoint x="214" y="630"/>
                        </Array>
                    </mxGeometry>
                </mxCell>
                <mxCell id="13" style="edgeStyle=orthogonalEdgeStyle;rounded=0;orthogonalLoop=1;jettySize=auto;html=1;fontSize=20;endArrow=block;endFill=1;entryX=0.5;entryY=0;entryDx=0;entryDy=0;" parent="1" source="6" target="11" edge="1">
                    <mxGeometry relative="1" as="geometry">
                        <mxPoint x="614" y="740" as="targetPoint"/>
                        <Array as="points">
                            <mxPoint x="614" y="630"/>
                        </Array>
                    </mxGeometry>
                </mxCell>
                <mxCell id="6" value="Repository" style="rounded=0;whiteSpace=wrap;html=1;fontSize=20;fillColor=#60a917;strokeColor=#2D7600;fontColor=#ffffff;" parent="1" vertex="1">
                    <mxGeometry x="314" y="590" width="200" height="80" as="geometry"/>
                </mxCell>
                <mxCell id="16" style="edgeStyle=orthogonalEdgeStyle;rounded=0;orthogonalLoop=1;jettySize=auto;html=1;exitX=0.75;exitY=1;exitDx=0;exitDy=0;entryX=0.5;entryY=0;entryDx=0;entryDy=0;entryPerimeter=0;fontSize=20;endArrow=block;endFill=1;" parent="1" source="10" target="14" edge="1">
                    <mxGeometry relative="1" as="geometry"/>
                </mxCell>
                <mxCell id="10" value="Local Data" style="rounded=0;whiteSpace=wrap;html=1;fontSize=20;fillColor=#FF8000;fontColor=#FFFFFF;" parent="1" vertex="1">
                    <mxGeometry x="114" y="750" width="200" height="80" as="geometry"/>
                </mxCell>
                <mxCell id="17" style="edgeStyle=orthogonalEdgeStyle;rounded=0;orthogonalLoop=1;jettySize=auto;html=1;exitX=0.75;exitY=1;exitDx=0;exitDy=0;entryX=0.5;entryY=0;entryDx=0;entryDy=0;entryPerimeter=0;fontSize=20;endArrow=block;endFill=1;" parent="1" source="11" target="15" edge="1">
                    <mxGeometry relative="1" as="geometry"/>
                </mxCell>
                <mxCell id="11" value="Remote Data" style="rounded=0;whiteSpace=wrap;html=1;fontSize=20;fontColor=#FFFFFF;fillColor=#CC0000;" parent="1" vertex="1">
                    <mxGeometry x="514" y="750" width="200" height="80" as="geometry"/>
                </mxCell>
                <mxCell id="14" value="JSON" style="shape=cylinder3;whiteSpace=wrap;html=1;boundedLbl=1;backgroundOutline=1;size=12;fontSize=20;fillColor=#FF8000;fontColor=#FFFFFF;" parent="1" vertex="1">
                    <mxGeometry x="214" y="910" width="100" height="80" as="geometry"/>
                </mxCell>
                <mxCell id="15" value="JSON" style="shape=cylinder3;whiteSpace=wrap;html=1;boundedLbl=1;backgroundOutline=1;size=12;fontSize=20;fontColor=#FFFFFF;fillColor=#CC0000;" parent="1" vertex="1">
                    <mxGeometry x="614" y="910" width="100" height="80" as="geometry"/>
                </mxCell>
            </root>
        </mxGraphModel>
    </diagram>
</mxfile>